# xmcd CD database file
#
# Track frame offsets:
#	150
#	15652
#	28317
#	39732
#	48217
#	56692
#	67385
#	74750
#	89692
#	98472
#	113422
#	119782
#	134555
#	142912
#	151905
#	161400
#	169245
#
# Disc length: 2420 seconds
#
# Revision: 4
# Processed by: cddbd v1.5.2PL0 Copyright (c) Steve Scherf et al.
# Submitted via: CDex 1.51
#
DISCID=f7097211
DTITLE=Jerry Clower - More Good 'Uns
DYEAR=1995
DGENRE=Comedy
TTITLE0=The Maddest Man I Ever Saw
TTITLE1=The Dog And The Bear
TTITLE2=Holding Pattern
TTITLE3=Coon Huntin' With A Wheel Barrow
TTITLE4=The Fish And The Edsel
TTITLE5=The Inventory
TTITLE6=Computer Pilot
TTITLE7=Dove Huntin'
TTITLE8=Mr. Doogah
TTITLE9=Hi-Ball And The Coon
TTITLE10=The Christian Bear
TTITLE11=Southern Humor
TTITLE12=The Hitch Hiker
TTITLE13=Clovis' Suit
TTITLE14=Two Burnt Ears
TTITLE15=The Wealthy Texan
TTITLE16=You're On My List
EXTD=YEAR: 1995
EXTT0=
EXTT1=
EXTT2=
EXTT3=
EXTT4=
EXTT5=
EXTT6=
EXTT7=
EXTT8=
EXTT9=
EXTT10=
EXTT11=
EXTT12=
EXTT13=
EXTT14=
EXTT15=
EXTT16=
PLAYORDER=
